<svg xmlns="http://www.w3.org/2000/svg" viewBox="0 0 100 100" width="32" height="32">
  <circle cx="50" cy="50" r="45" fill="#9333ea" stroke="#fff" stroke-width="2"/>
  <path d="M50 5 L60 25 L50 50 Z" fill="#f59e0b"/>
  <path d="M50 50 L75 25 L95 50 Z" fill="#ef4444"/>
  <path d="M50 50 L95 50 L75 75 Z" fill="#22c55e"/>
  <path d="M50 50 L75 75 L50 95 Z" fill="#3b82f6"/>
  <path d="M50 50 L50 95 L25 75 Z" fill="#8b5cf6"/>
  <path d="M50 50 L25 75 L5 50 Z" fill="#ec4899"/>
  <path d="M50 50 L5 50 L25 25 Z" fill="#06b6d4"/>
  <path d="M50 50 L25 25 L50 5 Z" fill="#84cc16"/>
  <circle cx="50" cy="50" r="6" fill="#fff"/>
  <polygon points="50,2 52,8 48,8" fill="#fbbf24"/>
</svg>